<svg width="600" height="400" viewBox="0 0 600 400" fill="none" xmlns="http://www.w3.org/2000/svg">
  <!-- Background Elements -->
  <rect width="600" height="400" fill="white"/>
  
  <!-- Stock Chart -->
  <path d="M50 300 L100 250 L150 270 L200 200 L250 220 L300 180 L350 150 L400 120 L450 100 L500 80 L550 50" stroke="#00C805" stroke-width="3" fill="none"/>
  <path d="M50 300 L100 250 L150 270 L200 200 L250 220 L300 180 L350 150 L400 120 L450 100 L500 80 L550 50 L550 300 L50 300" fill="url(#paint0_linear)" fill-opacity="0.2"/>
  
  <!-- Circles on Chart -->
  <circle cx="100" cy="250" r="4" fill="#00C805"/>
  <circle cx="150" cy="270" r="4" fill="#00C805"/>
  <circle cx="200" cy="200" r="4" fill="#00C805"/>
  <circle cx="250" cy="220" r="4" fill="#00C805"/>
  <circle cx="300" cy="180" r="4" fill="#00C805"/>
  <circle cx="350" cy="150" r="4" fill="#00C805"/>
  <circle cx="400" cy="120" r="4" fill="#00C805"/>
  <circle cx="450" cy="100" r="4" fill="#00C805"/>
  <circle cx="500" cy="80" r="4" fill="#00C805"/>
  <circle cx="550" cy="50" r="4" fill="#00C805"/>
  
  <!-- AI Brain Icon -->
  <circle cx="450" cy="150" r="60" fill="#F0F9F0"/>
  <path d="M450 110 C430 110 415 125 415 145 C415 165 430 180 450 180 C470 180 485 165 485 145 C485 125 470 110 450 110 Z" stroke="#00C805" stroke-width="2" fill="none"/>
  <path d="M435 130 L435 160 M465 130 L465 160 M435 145 L465 145" stroke="#00C805" stroke-width="2"/>
  <path d="M430 125 C430 125 440 115 450 115 C460 115 470 125 470 125" stroke="#00C805" stroke-width="2"/>
  <path d="M430 165 C430 165 440 175 450 175 C460 175 470 165 470 165" stroke="#00C805" stroke-width="2"/>
  
  <!-- Phone with Stock App -->
  <rect x="100" y="100" width="120" height="220" rx="10" fill="#F5F5F5" stroke="#333" stroke-width="2"/>
  <rect x="110" y="110" width="100" height="180" fill="white"/>
  <path d="M120 140 L150 120 L180 130 L200 110" stroke="#00C805" stroke-width="2" fill="none"/>
  <path d="M120 140 L150 120 L180 130 L200 110 L200 140 L120 140" fill="url(#paint1_linear)" fill-opacity="0.2"/>
  <rect x="120" y="150" width="80" height="10" rx="2" fill="#E0E0E0"/>
  <rect x="120" y="170" width="80" height="10" rx="2" fill="#E0E0E0"/>
  <rect x="120" y="190" width="80" height="10" rx="2" fill="#E0E0E0"/>
  <rect x="120" y="210" width="40" height="20" rx="4" fill="#00C805"/>
  <circle cx="160" cy="300" r="10" fill="#E0E0E0"/>
  
  <!-- Dollar Signs and Coins -->
  <circle cx="300" cy="80" r="20" fill="#FFD700"/>
  <path d="M300 70 L300 90 M295 75 L305 75 M295 85 L305 85" stroke="#333" stroke-width="2"/>
  
  <circle cx="350" cy="100" r="15" fill="#FFD700"/>
  <path d="M350 93 L350 107 M346 97 L354 97 M346 103 L354 103" stroke="#333" stroke-width="1.5"/>
  
  <circle cx="250" cy="100" r="15" fill="#FFD700"/>
  <path d="M250 93 L250 107 M246 97 L254 97 M246 103 L254 103" stroke="#333" stroke-width="1.5"/>
  
  <!-- Gradients -->
  <defs>
    <linearGradient id="paint0_linear" x1="300" y1="50" x2="300" y2="300" gradientUnits="userSpaceOnUse">
      <stop stop-color="#00C805"/>
      <stop offset="1" stop-color="#00C805" stop-opacity="0"/>
    </linearGradient>
    <linearGradient id="paint1_linear" x1="160" y1="110" x2="160" y2="140" gradientUnits="userSpaceOnUse">
      <stop stop-color="#00C805"/>
      <stop offset="1" stop-color="#00C805" stop-opacity="0"/>
    </linearGradient>
  </defs>
</svg>
